<mxfile host="app.diagrams.net" modified="2022-06-10T02:58:15.695Z" agent="5.0 (Macintosh; Intel Mac OS X 10_15_7) AppleWebKit/537.36 (KHTML, like Gecko) Chrome/102.0.5005.61 Safari/537.36" etag="l19_hlXI225Xbx1Yxe-x" version="18.1.3" type="github">
  <diagram id="WCO69UvegRipQ9do0xsf" name="Page-1">
    <mxGraphModel dx="925" dy="516" grid="1" gridSize="10" guides="1" tooltips="1" connect="1" arrows="1" fold="1" page="1" pageScale="1" pageWidth="827" pageHeight="1169" math="0" shadow="0">
      <root>
        <mxCell id="0" />
        <mxCell id="1" parent="0" />
        <mxCell id="TYmbUFa3_2n9thehmpID-5" style="edgeStyle=orthogonalEdgeStyle;rounded=0;orthogonalLoop=1;jettySize=auto;html=1;exitX=1;exitY=0.5;exitDx=0;exitDy=0;entryX=0;entryY=0.5;entryDx=0;entryDy=0;" edge="1" parent="1" source="TYmbUFa3_2n9thehmpID-1" target="TYmbUFa3_2n9thehmpID-2">
          <mxGeometry relative="1" as="geometry" />
        </mxCell>
        <mxCell id="TYmbUFa3_2n9thehmpID-6" style="edgeStyle=orthogonalEdgeStyle;rounded=0;orthogonalLoop=1;jettySize=auto;html=1;exitX=1;exitY=0.5;exitDx=0;exitDy=0;entryX=0;entryY=0.5;entryDx=0;entryDy=0;" edge="1" parent="1" source="TYmbUFa3_2n9thehmpID-1" target="TYmbUFa3_2n9thehmpID-3">
          <mxGeometry relative="1" as="geometry" />
        </mxCell>
        <mxCell id="TYmbUFa3_2n9thehmpID-7" style="edgeStyle=orthogonalEdgeStyle;rounded=0;orthogonalLoop=1;jettySize=auto;html=1;exitX=1;exitY=0.5;exitDx=0;exitDy=0;entryX=0.008;entryY=0.617;entryDx=0;entryDy=0;entryPerimeter=0;" edge="1" parent="1" source="TYmbUFa3_2n9thehmpID-1" target="TYmbUFa3_2n9thehmpID-4">
          <mxGeometry relative="1" as="geometry" />
        </mxCell>
        <mxCell id="TYmbUFa3_2n9thehmpID-1" value="后台管理" style="rounded=1;whiteSpace=wrap;html=1;" vertex="1" parent="1">
          <mxGeometry x="230" y="130" width="120" height="60" as="geometry" />
        </mxCell>
        <mxCell id="TYmbUFa3_2n9thehmpID-2" value="权限管理" style="rounded=1;whiteSpace=wrap;html=1;" vertex="1" parent="1">
          <mxGeometry x="390" y="50" width="120" height="60" as="geometry" />
        </mxCell>
        <mxCell id="TYmbUFa3_2n9thehmpID-3" value="用户管理" style="rounded=1;whiteSpace=wrap;html=1;" vertex="1" parent="1">
          <mxGeometry x="390" y="130" width="120" height="60" as="geometry" />
        </mxCell>
        <mxCell id="TYmbUFa3_2n9thehmpID-4" value="模块管理" style="rounded=1;whiteSpace=wrap;html=1;" vertex="1" parent="1">
          <mxGeometry x="390" y="210" width="120" height="60" as="geometry" />
        </mxCell>
        <mxCell id="TYmbUFa3_2n9thehmpID-8" value="运维平台" style="rounded=1;whiteSpace=wrap;html=1;" vertex="1" parent="1">
          <mxGeometry x="50" y="305" width="120" height="190" as="geometry" />
        </mxCell>
        <mxCell id="TYmbUFa3_2n9thehmpID-9" style="edgeStyle=orthogonalEdgeStyle;rounded=0;orthogonalLoop=1;jettySize=auto;html=1;exitX=1;exitY=0.5;exitDx=0;exitDy=0;entryX=0;entryY=0.5;entryDx=0;entryDy=0;" edge="1" parent="1" source="TYmbUFa3_2n9thehmpID-12" target="TYmbUFa3_2n9thehmpID-13">
          <mxGeometry relative="1" as="geometry" />
        </mxCell>
        <mxCell id="TYmbUFa3_2n9thehmpID-10" style="edgeStyle=orthogonalEdgeStyle;rounded=0;orthogonalLoop=1;jettySize=auto;html=1;exitX=1;exitY=0.5;exitDx=0;exitDy=0;entryX=0;entryY=0.5;entryDx=0;entryDy=0;" edge="1" parent="1" source="TYmbUFa3_2n9thehmpID-12" target="TYmbUFa3_2n9thehmpID-14">
          <mxGeometry relative="1" as="geometry" />
        </mxCell>
        <mxCell id="TYmbUFa3_2n9thehmpID-11" style="edgeStyle=orthogonalEdgeStyle;rounded=0;orthogonalLoop=1;jettySize=auto;html=1;exitX=1;exitY=0.5;exitDx=0;exitDy=0;entryX=0.008;entryY=0.617;entryDx=0;entryDy=0;entryPerimeter=0;" edge="1" parent="1" source="TYmbUFa3_2n9thehmpID-12" target="TYmbUFa3_2n9thehmpID-15">
          <mxGeometry relative="1" as="geometry" />
        </mxCell>
        <mxCell id="TYmbUFa3_2n9thehmpID-12" value="项目管理" style="rounded=1;whiteSpace=wrap;html=1;" vertex="1" parent="1">
          <mxGeometry x="230" y="370" width="120" height="60" as="geometry" />
        </mxCell>
        <mxCell id="TYmbUFa3_2n9thehmpID-13" value="版本管理" style="rounded=1;whiteSpace=wrap;html=1;" vertex="1" parent="1">
          <mxGeometry x="390" y="290" width="120" height="60" as="geometry" />
        </mxCell>
        <mxCell id="TYmbUFa3_2n9thehmpID-14" value="环境管理" style="rounded=1;whiteSpace=wrap;html=1;" vertex="1" parent="1">
          <mxGeometry x="390" y="370" width="120" height="60" as="geometry" />
        </mxCell>
        <mxCell id="TYmbUFa3_2n9thehmpID-15" value="资源管理" style="rounded=1;whiteSpace=wrap;html=1;" vertex="1" parent="1">
          <mxGeometry x="390" y="450" width="120" height="60" as="geometry" />
        </mxCell>
        <mxCell id="TYmbUFa3_2n9thehmpID-16" style="edgeStyle=orthogonalEdgeStyle;rounded=0;orthogonalLoop=1;jettySize=auto;html=1;exitX=1;exitY=0.5;exitDx=0;exitDy=0;entryX=0;entryY=0.5;entryDx=0;entryDy=0;" edge="1" parent="1" source="TYmbUFa3_2n9thehmpID-19" target="TYmbUFa3_2n9thehmpID-20">
          <mxGeometry relative="1" as="geometry" />
        </mxCell>
        <mxCell id="TYmbUFa3_2n9thehmpID-17" style="edgeStyle=orthogonalEdgeStyle;rounded=0;orthogonalLoop=1;jettySize=auto;html=1;exitX=1;exitY=0.5;exitDx=0;exitDy=0;entryX=0;entryY=0.5;entryDx=0;entryDy=0;" edge="1" parent="1" source="TYmbUFa3_2n9thehmpID-19" target="TYmbUFa3_2n9thehmpID-21">
          <mxGeometry relative="1" as="geometry" />
        </mxCell>
        <mxCell id="TYmbUFa3_2n9thehmpID-18" style="edgeStyle=orthogonalEdgeStyle;rounded=0;orthogonalLoop=1;jettySize=auto;html=1;exitX=1;exitY=0.5;exitDx=0;exitDy=0;entryX=0.008;entryY=0.617;entryDx=0;entryDy=0;entryPerimeter=0;" edge="1" parent="1" source="TYmbUFa3_2n9thehmpID-19" target="TYmbUFa3_2n9thehmpID-22">
          <mxGeometry relative="1" as="geometry" />
        </mxCell>
        <mxCell id="TYmbUFa3_2n9thehmpID-19" value="知识库" style="rounded=1;whiteSpace=wrap;html=1;" vertex="1" parent="1">
          <mxGeometry x="230" y="610" width="120" height="60" as="geometry" />
        </mxCell>
        <mxCell id="TYmbUFa3_2n9thehmpID-20" value="操作部署文档" style="rounded=1;whiteSpace=wrap;html=1;" vertex="1" parent="1">
          <mxGeometry x="390" y="530" width="120" height="60" as="geometry" />
        </mxCell>
        <mxCell id="TYmbUFa3_2n9thehmpID-21" value="FAQ知识集" style="rounded=1;whiteSpace=wrap;html=1;" vertex="1" parent="1">
          <mxGeometry x="390" y="610" width="120" height="60" as="geometry" />
        </mxCell>
        <mxCell id="TYmbUFa3_2n9thehmpID-22" value="运维问题文档" style="rounded=1;whiteSpace=wrap;html=1;" vertex="1" parent="1">
          <mxGeometry x="390" y="690" width="120" height="60" as="geometry" />
        </mxCell>
      </root>
    </mxGraphModel>
  </diagram>
</mxfile>
